<svg width="23" height="32" viewBox="0 0 23 32" fill="none" xmlns="http://www.w3.org/2000/svg">
<path d="M1.3335 11H2.0835H1.3335ZM1.43609 8.02971L0.695329 7.91239L1.43609 8.02971ZM8.36321 1.1026L8.24589 0.361831L8.36321 1.1026ZM8.36321 30.8974L8.24588 31.6382L8.36321 30.8974ZM1.3335 21H0.583497H1.3335ZM1.43609 23.9703L0.695328 24.0876L1.43609 23.9703ZM21.3335 21H22.0835H21.3335ZM21.2309 23.9703L21.9717 24.0876L21.2309 23.9703ZM14.3038 30.8974L14.4211 31.6382L14.3038 30.8974ZM21.3335 11H20.5835H21.3335ZM21.2309 8.02971L21.9717 7.91239L21.2309 8.02971ZM14.3038 1.1026L14.4211 0.361831L14.3038 1.1026ZM1.3335 22.6667H0.583496H1.3335ZM9.66683 14.3333V13.5833V14.3333ZM10.5835 11C10.5835 11.4142 10.9193 11.75 11.3335 11.75C11.7477 11.75 12.0835 11.4142 12.0835 11H11.3335H10.5835ZM21.3335 11H20.5835V21H21.3335H22.0835V11H21.3335ZM1.3335 21L2.0835 21L2.0835 11H1.3335H0.583498L0.583497 21H1.3335ZM1.3335 11H2.0835C2.0835 9.423 2.08583 8.72182 2.17686 8.14704L1.43609 8.02971L0.695329 7.91239C0.58117 8.63316 0.583498 9.48032 0.583498 11H1.3335ZM11.3335 1V0.25C9.81382 0.25 8.96665 0.247672 8.24589 0.361831L8.36321 1.1026L8.48054 1.84336C9.05531 1.75233 9.75649 1.75 11.3335 1.75V1ZM1.43609 8.02971L2.17686 8.14704C2.6908 4.90219 5.23569 2.3573 8.48054 1.84336L8.36321 1.1026L8.24589 0.361831C4.35919 0.977422 1.31092 4.0257 0.695329 7.91239L1.43609 8.02971ZM11.3335 31V30.25C9.75649 30.25 9.05531 30.2477 8.48054 30.1566L8.36321 30.8974L8.24588 31.6382C8.96665 31.7523 9.81382 31.75 11.3335 31.75V31ZM1.3335 21H0.583497C0.583497 22.5197 0.581169 23.3668 0.695328 24.0876L1.43609 23.9703L2.17686 23.853C2.08582 23.2782 2.0835 22.577 2.0835 21L1.3335 21ZM8.36321 30.8974L8.48054 30.1566C5.23568 29.6427 2.69079 27.0978 2.17686 23.853L1.43609 23.9703L0.695328 24.0876C1.31092 27.9743 4.35919 31.0226 8.24588 31.6382L8.36321 30.8974ZM21.3335 21H20.5835C20.5835 22.577 20.5812 23.2782 20.4901 23.853L21.2309 23.9703L21.9717 24.0876C22.0858 23.3668 22.0835 22.5197 22.0835 21H21.3335ZM11.3335 31V31.75C12.8532 31.75 13.7003 31.7523 14.4211 31.6382L14.3038 30.8974L14.1865 30.1566C13.6117 30.2477 12.9105 30.25 11.3335 30.25V31ZM21.2309 23.9703L20.4901 23.853C19.9762 27.0978 17.4313 29.6427 14.1865 30.1566L14.3038 30.8974L14.4211 31.6382C18.3078 31.0226 21.3561 27.9743 21.9717 24.0876L21.2309 23.9703ZM21.3335 11L22.0835 11C22.0835 9.48032 22.0858 8.63316 21.9717 7.91239L21.2309 8.02971L20.4901 8.14704C20.5812 8.72182 20.5835 9.423 20.5835 11H21.3335ZM11.3335 1V1.75C12.9105 1.75 13.6117 1.75233 14.1865 1.84336L14.3038 1.1026L14.4211 0.361831C13.7003 0.247672 12.8532 0.25 11.3335 0.25V1ZM21.2309 8.02971L21.9717 7.91239C21.3561 4.0257 18.3078 0.977422 14.4211 0.361831L14.3038 1.1026L14.1865 1.84336C17.4313 2.3573 19.9762 4.90219 20.4901 8.14704L21.2309 8.02971ZM13.0002 31V30.25L9.66683 30.25L9.66683 31L9.66683 31.75L13.0002 31.75L13.0002 31ZM9.66683 14.3333V15.0833H13.0002V14.3333V13.5833H9.66683V14.3333ZM1.3335 22.6667H2.0835C2.0835 18.4785 5.47867 15.0833 9.66683 15.0833V14.3333V13.5833C4.65025 13.5833 0.583497 17.6501 0.583496 22.6667H1.3335ZM9.66683 31V30.25C5.47867 30.25 2.0835 26.8548 2.0835 22.6667H1.3335H0.583496C0.583496 27.6833 4.65024 31.75 9.66683 31.75V31ZM21.3335 22.6667H20.5835C20.5835 26.8548 17.1883 30.25 13.0002 30.25V31V31.75C18.0167 31.75 22.0835 27.6833 22.0835 22.6667H21.3335ZM21.3335 22.6667H22.0835C22.0835 17.6501 18.0167 13.5833 13.0002 13.5833V14.3333V15.0833C17.1883 15.0833 20.5835 18.4785 20.5835 22.6667H21.3335ZM11.3335 11H12.0835V1L11.3335 1L10.5835 1V11H11.3335Z" fill="#ED05CA"/>
</svg>
