<svg width="33" height="32" viewBox="0 0 33 32" fill="none" xmlns="http://www.w3.org/2000/svg">
<path d="M24.9998 11L19.3845 17.272C17.1594 19.7573 16.0468 21 14.5832 21C13.1195 21 12.0069 19.7573 9.78179 17.272L8.33317 15.6539M16.6665 31C10.4169 31 7.29217 31 5.10163 29.4085C4.39417 28.8945 3.77203 28.2723 3.25803 27.5649C1.6665 25.3743 1.6665 22.2496 1.6665 16C1.6665 9.75045 1.6665 6.62567 3.25803 4.43512C3.77203 3.72767 4.39417 3.10552 5.10163 2.59152C7.29217 1 10.4169 1 16.6665 1C22.9161 1 26.0408 1 28.2314 2.59152C28.9388 3.10552 29.561 3.72767 30.075 4.43512C31.6665 6.62567 31.6665 9.75045 31.6665 16C31.6665 22.2496 31.6665 25.3743 30.075 27.5649C29.561 28.2723 28.9388 28.8945 28.2314 29.4085C26.0408 31 22.9161 31 16.6665 31Z" stroke="#ED05CA" stroke-width="1.5" stroke-linecap="round"/>
</svg>
