<svg width="126" height="29" viewBox="0 0 126 29" fill="none" xmlns="http://www.w3.org/2000/svg">
<g opacity="0.6">
<path d="M37.0753 8.2888H40.2309V21.0181H37.0753V8.2888ZM41.4826 16.2118C41.4826 13.0636 43.418 11.1852 46.4053 11.1852C49.3926 11.1852 51.328 13.0636 51.328 16.2118C51.328 19.36 49.4347 21.249 46.4053 21.249C43.3759 21.249 41.4826 19.4125 41.4826 16.2118ZM48.1619 16.2118C48.1619 14.4803 47.4782 13.4624 46.4053 13.4624C45.3324 13.4624 44.6592 14.5118 44.6592 16.2118C44.6592 17.9119 45.3219 18.9403 46.4053 18.9403C47.4887 18.9403 48.1619 17.9748 48.1619 16.2223V16.2118ZM52.5166 21.6373H55.546C55.6901 21.9568 55.9339 22.2214 56.2409 22.3915C56.548 22.5617 56.9019 22.6284 57.25 22.5817C58.4491 22.5817 59.0802 21.9311 59.0802 20.9866V19.2236H59.0171C58.7657 19.764 58.3577 20.2167 57.8459 20.5235C57.334 20.8303 56.7418 20.977 56.1455 20.9446C53.842 20.9446 52.3168 19.1921 52.3168 16.1803C52.3168 13.1685 53.7683 11.2691 56.1876 11.2691C56.8025 11.2451 57.4101 11.4091 57.929 11.7392C58.4478 12.0693 58.8532 12.5497 59.0907 13.1161V11.3636H62.2463V20.9132C62.2463 23.2114 60.2162 24.6386 57.2184 24.6386C54.431 24.6386 52.6954 23.3898 52.5166 21.6477V21.6373ZM59.0907 16.2013C59.0907 14.6692 58.386 13.7037 57.271 13.7037C56.156 13.7037 55.4723 14.6587 55.4723 16.2013C55.4723 17.744 56.1455 18.615 57.271 18.615C58.3965 18.615 59.0907 17.7649 59.0907 16.2118V16.2013ZM63.4349 16.2013C63.4349 13.0531 65.3704 11.1747 68.3577 11.1747C71.3449 11.1747 73.2909 13.0531 73.2909 16.2013C73.2909 19.3495 71.3975 21.2385 68.3577 21.2385C65.3178 21.2385 63.4349 19.4125 63.4349 16.2118V16.2013ZM70.1143 16.2013C70.1143 14.4698 69.4305 13.4519 68.3577 13.4519C67.2848 13.4519 66.6641 14.5118 66.6641 16.2223C66.6641 17.9328 67.3268 18.9508 68.3997 18.9508C69.4726 18.9508 70.1143 17.9748 70.1143 16.2223V16.2013ZM74.49 9.07585C74.4817 8.75799 74.5682 8.44484 74.7386 8.1761C74.9089 7.90735 75.1554 7.69511 75.4468 7.56629C75.7382 7.43746 76.0613 7.39785 76.3753 7.45248C76.6893 7.5071 76.9799 7.6535 77.2104 7.87312C77.4409 8.09274 77.6008 8.37568 77.6699 8.68609C77.739 8.99649 77.7141 9.32037 77.5985 9.61668C77.4829 9.91298 77.2817 10.1684 77.0204 10.3505C76.7591 10.5325 76.4496 10.6331 76.1309 10.6395C75.9197 10.6539 75.7077 10.6247 75.5084 10.5535C75.309 10.4824 75.1266 10.3709 74.9725 10.226C74.8184 10.0811 74.696 9.90605 74.6129 9.71173C74.5299 9.51741 74.4881 9.30807 74.49 9.09684V9.07585ZM74.49 11.3845H77.6456V21.0181H74.49V11.3845ZM89.1004 16.2013C89.1004 19.3495 87.7014 21.144 85.3031 21.144C84.6882 21.1834 84.0759 21.0334 83.5492 20.7144C83.0224 20.3953 82.6066 19.9226 82.3579 19.36H82.2948V24.1034H79.1392V11.3636H82.2948V13.0846H82.3579C82.595 12.5128 83.0029 12.0277 83.5261 11.6954C84.0493 11.363 84.6625 11.1995 85.2821 11.2271C87.7014 11.2691 89.1424 13.0741 89.1424 16.2223L89.1004 16.2013ZM85.9448 16.2013C85.9448 14.6692 85.24 13.6932 84.1356 13.6932C83.0311 13.6932 82.3264 14.6797 82.3158 16.2013C82.3053 17.723 83.0311 18.6989 84.1356 18.6989C85.24 18.6989 85.9448 17.744 85.9448 16.2223V16.2013ZM94.5175 11.1642C97.1366 11.1642 98.7249 12.4025 98.7985 14.3859H95.9269C95.9269 13.7037 95.3589 13.2735 94.4859 13.2735C93.6128 13.2735 93.2237 13.6093 93.2237 14.1025C93.2237 14.5957 93.5708 14.7531 94.2755 14.9001L96.2951 15.3093C98.22 15.7186 99.0405 16.4952 99.0405 17.9538C99.0405 19.9477 97.2207 21.228 94.5385 21.228C91.8562 21.228 90.0996 19.9477 89.9629 17.9853H93.0028C93.0974 18.6989 93.6654 19.1187 94.5911 19.1187C95.5167 19.1187 95.9375 18.8143 95.9375 18.3106C95.9375 17.8069 95.6429 17.702 94.8856 17.5446L93.0659 17.1563C91.183 16.768 90.1943 15.7711 90.1943 14.3019C90.2153 12.413 91.9088 11.1852 94.5175 11.1852V11.1642ZM109.57 20.9971H106.53V19.2026H106.467C106.3 19.8051 105.931 20.3325 105.422 20.6971C104.913 21.0617 104.294 21.2416 103.669 21.207C103.189 21.2342 102.71 21.1584 102.262 20.9847C101.814 20.8111 101.409 20.5436 101.074 20.2004C100.739 19.8572 100.482 19.4462 100.32 18.9953C100.158 18.5444 100.094 18.064 100.134 17.5865V11.3636H103.29V16.8625C103.29 18.0063 103.879 18.615 104.857 18.615C105.087 18.6154 105.313 18.567 105.523 18.4728C105.732 18.3787 105.918 18.2411 106.07 18.0691C106.221 17.8972 106.334 17.695 106.4 17.476C106.467 17.257 106.486 17.0264 106.456 16.7995V11.3636H109.612L109.57 20.9971ZM111.095 11.3636H114.145V13.221H114.208C114.376 12.6265 114.736 12.1042 115.233 11.7358C115.73 11.3674 116.335 11.1737 116.954 11.1852C117.583 11.1349 118.209 11.3229 118.706 11.7117C119.203 12.1006 119.535 12.6619 119.636 13.284H119.699C119.89 12.6553 120.285 12.1079 120.822 11.7279C121.359 11.3479 122.007 11.157 122.665 11.1852C123.094 11.1708 123.522 11.2466 123.92 11.4078C124.317 11.569 124.677 11.8118 124.974 12.1206C125.272 12.4294 125.501 12.7972 125.647 13.2001C125.793 13.603 125.852 14.0321 125.821 14.4593V21.0181H122.665V15.2988C122.665 14.2494 122.192 13.7667 121.308 13.7667C121.111 13.765 120.916 13.8056 120.736 13.8855C120.556 13.9655 120.396 14.083 120.265 14.2302C120.134 14.3774 120.037 14.5509 119.979 14.7388C119.921 14.9268 119.905 15.1249 119.93 15.3198V21.0181H116.933V15.2569C116.933 14.2914 116.459 13.7667 115.597 13.7667C115.398 13.7668 115.201 13.809 115.019 13.8906C114.837 13.9721 114.675 14.0912 114.543 14.24C114.41 14.3887 114.311 14.5638 114.252 14.7535C114.192 14.9433 114.174 15.1434 114.198 15.3408V21.0181H111.042L111.095 11.3636Z" fill="#D7D7D7"/>
<path d="M28.2502 8.86602C27.7149 7.64489 27.0064 6.50689 26.1465 5.48694C24.8752 3.93417 23.2888 2.66759 21.4916 1.77057C19.6944 0.87355 17.7272 0.366424 15.7193 0.282567C13.7115 0.198711 11.7087 0.540025 9.84262 1.28405C7.97655 2.02807 6.28958 3.15794 4.89273 4.59927C3.49588 6.04061 2.42082 7.76074 1.73832 9.64645C1.05582 11.5322 0.781343 13.5407 0.93296 15.5399C1.08458 17.539 1.65885 19.4835 2.61798 21.2453C3.57711 23.0071 4.89934 24.5462 6.49767 25.7615C7.52324 26.5568 8.65646 27.2034 9.86363 27.6819C11.5561 28.3739 13.3675 28.7303 15.1966 28.7313C18.9721 28.723 22.5903 27.2215 25.2581 24.556C27.9259 21.8906 29.4255 18.2786 29.4283 14.5118C29.431 12.5689 29.0299 10.6465 28.2502 8.86602ZM15.1861 3.16774C16.8286 3.16757 18.4513 3.52573 19.9405 4.21715C19.5773 4.37369 19.1955 4.48302 18.8045 4.54247C17.5176 4.72831 16.3255 5.32436 15.4061 6.24164C14.4866 7.15892 13.8892 8.34824 13.7029 9.63209C13.6212 10.3521 13.2929 11.022 12.7736 11.5286C12.2543 12.0352 11.5757 12.3476 10.8524 12.413C9.56553 12.5989 8.37342 13.1949 7.45399 14.1122C6.53457 15.0295 5.93713 16.2188 5.75085 17.5026C5.68778 18.1873 5.395 18.8306 4.91988 19.3286C4.10011 17.6005 3.73185 15.6936 3.84937 13.7854C3.96688 11.8771 4.56635 10.0295 5.59198 8.41452C6.61762 6.79953 8.03609 5.46964 9.71539 4.5486C11.3947 3.62757 13.2802 3.14533 15.1966 3.14675L15.1861 3.16774ZM6.48715 21.8577C6.61338 21.7423 6.7396 21.6373 6.86582 21.5114C7.80162 20.6062 8.40229 19.4114 8.56984 18.1218C8.63777 17.3969 8.96218 16.7198 9.48496 16.2119C9.98801 15.6894 10.6651 15.3685 11.3888 15.3094C12.6757 15.1235 13.8678 14.5275 14.7872 13.6102C15.7066 12.6929 16.3041 11.5036 16.4904 10.2198C16.5359 9.46158 16.862 8.74728 17.4055 8.21539C17.9209 7.70312 18.6045 7.39382 19.3304 7.34438C20.5126 7.18211 21.6152 6.65777 22.486 5.84373C23.4775 6.66444 24.3176 7.65175 24.9684 8.76109C24.9284 8.81497 24.8825 8.86425 24.8316 8.908C24.3295 9.43501 23.6533 9.76302 22.9278 9.83148C21.6396 10.0141 20.4457 10.6091 19.5257 11.5269C18.6056 12.4448 18.0093 13.6359 17.8262 14.9211C17.7521 15.6435 17.4299 16.3182 16.9142 16.8308C16.3986 17.3433 15.7211 17.6623 14.9967 17.7335C13.7061 17.9179 12.5096 18.5128 11.5848 19.4297C10.6601 20.3466 10.0564 21.5367 9.86363 22.8231C9.80702 23.336 9.63048 23.8285 9.34822 24.2608C8.269 23.6216 7.30244 22.8097 6.48715 21.8577ZM15.1861 25.9084C14.1187 25.9096 13.0565 25.7612 12.0305 25.4677C12.3814 24.8149 12.6096 24.1036 12.7037 23.3688C12.7774 22.648 13.0981 21.9746 13.6116 21.4623C14.1252 20.9499 14.8001 20.63 15.5226 20.5564C16.8114 20.3727 18.0059 19.7775 18.9274 18.8601C19.8489 17.9426 20.4479 16.7522 20.6347 15.4668C20.7084 14.746 21.0291 14.0726 21.5427 13.5602C22.0562 13.0479 22.7312 12.7279 23.4537 12.6544C24.4235 12.5285 25.3479 12.1683 26.1465 11.605C26.5899 13.2818 26.6424 15.0377 26.3 16.738C25.9576 18.4383 25.2294 20.0377 24.1712 21.4135C23.113 22.7894 21.753 23.9052 20.1955 24.6752C18.638 25.4453 16.9243 25.8492 15.1861 25.8559V25.9084Z" fill="#D7D7D7"/>
</g>
</svg>
