<svg width="138" height="31" viewBox="0 0 138 31" fill="none" xmlns="http://www.w3.org/2000/svg">
<g opacity="0.6">
<path d="M33.6002 7.28961H36.7557V22.598H33.6002V7.28961Z" fill="#D7D7D7"/>
<path d="M38.5229 17.3539C38.5229 16.2525 38.8476 15.1759 39.4558 14.2606C40.064 13.3453 40.9283 12.6325 41.9392 12.2124C42.9501 11.7924 44.0621 11.6842 45.1341 11.9014C46.2062 12.1185 47.1901 12.6514 47.9611 13.4325C48.7322 14.2135 49.2556 15.2075 49.4651 16.2885C49.6746 17.3694 49.5608 18.4887 49.1379 19.5045C48.7151 20.5202 48.0024 21.3866 47.0901 21.9939C46.1779 22.6012 45.1071 22.9221 44.0136 22.9158C43.2883 22.9215 42.5692 22.7813 41.8984 22.5034C41.2276 22.2255 40.6186 21.8155 40.1072 21.2975C39.5958 20.7795 39.1922 20.1638 38.9202 19.4866C38.6481 18.8094 38.513 18.0844 38.5229 17.3539ZM46.4329 17.3539C46.4205 16.8791 46.2693 16.4185 45.9984 16.0297C45.7274 15.641 45.3487 15.3413 44.9095 15.1682C44.4703 14.9951 43.9902 14.9562 43.5293 15.0565C43.0683 15.1567 42.6469 15.3916 42.3178 15.7318C41.9886 16.072 41.7664 16.5024 41.6789 16.9691C41.5913 17.4359 41.6424 17.9182 41.8256 18.3559C42.0088 18.7936 42.3161 19.1671 42.709 19.4298C43.1019 19.6925 43.563 19.8327 44.0346 19.8329C44.3557 19.8392 44.6746 19.7787 44.9715 19.6553C45.2683 19.5318 45.5367 19.348 45.7598 19.1153C45.9829 18.8827 46.1559 18.6062 46.2681 18.3031C46.3803 18 46.4292 17.6769 46.4118 17.3539H46.4329Z" fill="#D7D7D7"/>
<path d="M61.9899 12.1099V22.0788C61.9899 25.5961 59.2551 27.0898 56.4887 27.0898C55.5129 27.1705 54.5342 26.9752 53.6626 26.526C52.7911 26.0768 52.0613 25.3915 51.5555 24.5473L54.2167 23.0005C54.4323 23.4384 54.7754 23.7997 55.2001 24.0363C55.6248 24.2729 56.111 24.3735 56.5939 24.3248C56.9015 24.363 57.2137 24.3322 57.5082 24.2347C57.8026 24.1372 58.0721 23.9753 58.2972 23.7607C58.5223 23.5462 58.6976 23.2841 58.8104 22.9934C58.9233 22.7026 58.971 22.3903 58.9501 22.0788V21.1148C58.5828 21.5632 58.1169 21.9192 57.5892 22.1546C57.0615 22.39 56.4866 22.4983 55.9102 22.4708C54.5153 22.4708 53.1776 21.9128 52.1913 20.9194C51.205 19.926 50.6509 18.5787 50.6509 17.1738C50.6509 15.769 51.205 14.4216 52.1913 13.4283C53.1776 12.4349 54.5153 11.8768 55.9102 11.8768C56.4866 11.8494 57.0615 11.9576 57.5892 12.193C58.1169 12.4284 58.5828 12.7844 58.9501 13.2328V12.1734L61.9899 12.1099ZM58.9501 17.142C58.971 16.6352 58.841 16.1336 58.5767 15.7018C58.3123 15.27 57.9258 14.9276 57.4668 14.7189C57.0077 14.5101 56.4972 14.4444 56.0007 14.5302C55.5043 14.616 55.0447 14.8494 54.6811 15.2004C54.3174 15.5514 54.0663 16.0039 53.9601 16.4998C53.8539 16.9957 53.8973 17.5122 54.0849 17.983C54.2725 18.4538 54.5956 18.8573 55.0127 19.1417C55.4299 19.426 55.9219 19.5782 56.4256 19.5787C56.7542 19.6025 57.0842 19.5567 57.3942 19.4441C57.7042 19.3315 57.9872 19.1547 58.2251 18.9251C58.463 18.6954 58.6505 18.4181 58.7754 18.111C58.9002 17.8039 58.9597 17.4738 58.9501 17.142Z" fill="#D7D7D7"/>
<path d="M63.7675 17.3539C63.7675 16.2534 64.0917 15.1777 64.6989 14.2628C65.3062 13.3479 66.1693 12.6351 67.179 12.2144C68.1886 11.7938 69.2995 11.6842 70.371 11.8997C71.4425 12.1152 72.4265 12.6459 73.1984 13.4248C73.9703 14.2037 74.4954 15.1958 74.7073 16.2754C74.9191 17.3549 74.8083 18.4736 74.3887 19.4897C73.9691 20.5058 73.2597 21.3737 72.3502 21.9836C71.4407 22.5934 70.3719 22.9179 69.2793 22.9158C68.5526 22.9229 67.8319 22.7838 67.1593 22.5066C66.4867 22.2295 65.8758 21.8199 65.3624 21.3019C64.8491 20.7839 64.4436 20.1678 64.1697 19.4899C63.8958 18.812 63.7591 18.0858 63.7675 17.3539ZM71.6775 17.3539C71.6651 16.8786 71.5137 16.4176 71.2423 16.0286C70.9709 15.6397 70.5915 15.34 70.1517 15.1672C69.7119 14.9944 69.2313 14.9562 68.7701 15.0573C68.3088 15.1584 67.8874 15.3944 67.5588 15.7357C67.2301 16.0769 67.0087 16.5083 66.9223 16.9757C66.836 17.4431 66.8885 17.9258 67.0734 18.3632C67.2582 18.8007 67.5671 19.1735 67.9614 19.435C68.3557 19.6964 68.8178 19.8348 69.2898 19.8329C69.6109 19.8392 69.9298 19.7787 70.2267 19.6553C70.5235 19.5318 70.7919 19.348 71.015 19.1153C71.2381 18.8827 71.4111 18.6062 71.5233 18.3031C71.6355 18 71.6844 17.6769 71.667 17.3539H71.6775Z" fill="#D7D7D7"/>
<path d="M76.2532 9.30242C76.2532 8.92945 76.363 8.56486 76.5687 8.25475C76.7745 7.94465 77.0669 7.70295 77.409 7.56022C77.7511 7.41749 78.1276 7.38015 78.4908 7.45291C78.854 7.52567 79.1876 7.70527 79.4494 7.969C79.7113 8.23272 79.8896 8.56873 79.9618 8.93452C80.0341 9.30032 79.997 9.67948 79.8553 10.0241C79.7136 10.3686 79.4736 10.6631 79.1657 10.8703C78.8578 11.0776 78.4958 11.1882 78.1255 11.1882C77.6306 11.1826 77.1576 10.9822 76.8076 10.6297C76.4577 10.2773 76.2587 9.80083 76.2532 9.30242ZM76.5582 12.1098H79.7138V22.5979H76.5582V12.1098Z" fill="#D7D7D7"/>
<path d="M93.2197 17.3539C93.2551 18.0515 93.1531 18.7491 92.9197 19.4068C92.6863 20.0645 92.3261 20.6692 91.8598 21.1861C91.3935 21.7031 90.8302 22.122 90.2025 22.4188C89.5748 22.7157 88.8951 22.8846 88.2023 22.9158C87.6144 22.9552 87.0253 22.8604 86.4789 22.6384C85.9325 22.4165 85.4429 22.0731 85.0467 21.6339V26.8144H81.8911V12.1099H85.0467V13.0952C85.4435 12.6573 85.9334 12.3155 86.4799 12.0953C87.0263 11.8752 87.6152 11.7824 88.2023 11.8239C88.8923 11.8552 89.5694 12.023 90.1949 12.3179C90.8205 12.6127 91.3823 13.0288 91.8482 13.5423C92.3141 14.0558 92.675 14.6567 92.9103 15.3107C93.1456 15.9647 93.2508 16.659 93.2197 17.3539ZM90.0641 17.3539C90.0517 16.8619 89.8953 16.3845 89.6146 15.9816C89.334 15.5787 88.9414 15.2681 88.4863 15.0889C88.0311 14.9097 87.5336 14.8698 87.056 14.9742C86.5784 15.0786 86.1421 15.3227 85.8016 15.6758C85.4612 16.0289 85.2318 16.4753 85.1422 16.9592C85.0526 17.443 85.1068 17.9428 85.298 18.3957C85.4892 18.8487 85.8089 19.2347 86.217 19.5055C86.6251 19.7762 87.1035 19.9196 87.5922 19.9177C87.9269 19.932 88.2609 19.8749 88.5722 19.7501C88.8835 19.6253 89.165 19.4356 89.3984 19.1936C89.6318 18.9515 89.8118 18.6625 89.9265 18.3454C90.0412 18.0284 90.0881 17.6905 90.0641 17.3539Z" fill="#D7D7D7"/>
<path d="M102.823 19.4515C102.823 21.867 100.719 22.8946 98.4895 22.8946C97.58 22.977 96.6668 22.7829 95.868 22.3372C95.0692 21.8915 94.4215 21.2147 94.0086 20.3944L96.7224 18.8477C96.8299 19.2257 97.063 19.555 97.3828 19.7807C97.7025 20.0063 98.0895 20.1145 98.479 20.0872C99.2258 20.0872 99.6045 19.8541 99.6045 19.4303C99.6045 18.2756 94.4819 18.89 94.4819 15.2563C94.4819 12.968 96.3963 11.8238 98.5631 11.8238C99.3868 11.7867 100.205 11.9749 100.931 12.3685C101.657 12.762 102.264 13.3463 102.686 14.0592L99.9726 15.4999C99.8527 15.2266 99.6568 14.9942 99.4086 14.8306C99.1603 14.667 98.8703 14.5794 98.5736 14.5783C98.0267 14.5783 97.7006 14.7901 97.7006 15.1609C97.7006 16.3687 102.823 15.5741 102.823 19.4515Z" fill="#D7D7D7"/>
<path d="M114.257 12.1099V22.598H111.101V21.6128C110.743 22.0489 110.288 22.394 109.772 22.6204C109.257 22.8467 108.696 22.9479 108.135 22.9158C106.031 22.9158 104.233 21.4009 104.233 18.5723V12.1099H107.388V18.0955C107.363 18.3458 107.393 18.5985 107.474 18.8361C107.556 19.0738 107.688 19.2908 107.861 19.4721C108.034 19.6534 108.244 19.7947 108.477 19.8863C108.709 19.9779 108.959 20.0175 109.208 20.0025C110.344 20.0025 111.143 19.3244 111.143 17.8837V12.1099H114.257Z" fill="#D7D7D7"/>
<path d="M132.138 16.1568V22.5979H128.983V16.4322C128.983 15.3728 128.489 14.716 127.489 14.716C126.49 14.716 125.859 15.447 125.859 16.6865V22.5979H122.703V16.4322C122.703 15.3728 122.209 14.716 121.21 14.716C120.21 14.716 119.579 15.447 119.579 16.6865V22.5979H116.424V12.1099H119.579V13.0739C119.906 12.648 120.333 12.3107 120.821 12.0925C121.31 11.8742 121.844 11.7819 122.377 11.8238C122.911 11.7958 123.443 11.908 123.92 12.1495C124.398 12.3909 124.805 12.7533 125.102 13.201C125.448 12.7332 125.907 12.3616 126.435 12.1207C126.963 11.8799 127.543 11.7777 128.12 11.8238C130.582 11.8238 132.138 13.54 132.138 16.1568Z" fill="#D7D7D7"/>
<path d="M14.8034 4.53517V0.0327148H0.708435V30.9672H14.8034V26.4648C11.916 26.4648 9.14694 25.3096 7.10528 23.2533C5.06361 21.197 3.91661 18.408 3.91661 15.5C3.91661 12.5919 5.06361 9.80299 7.10528 7.74669C9.14694 5.69039 11.916 4.53517 14.8034 4.53517Z" fill="#D7D7D7"/>
<path d="M14.8034 4.53517V26.4648C17.6907 26.4648 20.4598 25.3096 22.5014 23.2533C24.5431 21.197 25.6901 18.408 25.6901 15.5C25.6901 12.5919 24.5431 9.80299 22.5014 7.74669C20.4598 5.69039 17.6907 4.53517 14.8034 4.53517Z" fill="#D7D7D7"/>
<path d="M134.789 12.0463C136.067 12.0463 137.103 11.0028 137.103 9.71562C137.103 8.42842 136.067 7.38493 134.789 7.38493C133.511 7.38493 132.475 8.42842 132.475 9.71562C132.475 11.0028 133.511 12.0463 134.789 12.0463Z" fill="#D7D7D7"/>
</g>
</svg>
